<svg xmlns="http://www.w3.org/2000/svg" xmlns:xlink="http://www.w3.org/1999/xlink" width="64px" height="64px" viewBox="0 0 64 64" preserveAspectRatio="xMidYMid meet">
<path fill="currentColor" d="M48.95,15C44.317,10.333,38.667,8,32,8c-6.633,0-12.3,2.333-17,7c-4.667,4.7-7,10.367-7,17
	c0,6.667,2.333,12.317,7,16.95C19.7,53.65,25.367,56,32,56c6.667,0,12.317-2.35,16.95-7.05C53.65,44.317,56,38.667,56,32
	C56,25.367,53.65,19.7,48.95,15z M25.943,37.532l-6.455,2.31c-1.14,0.409-1.316,0.988-0.389,1.292
	c0.927,0.304,2.606,0.217,3.748-0.193l3.096-1.124v3.253c-0.196,0.035-0.415,0.07-0.618,0.104c-3.098,0.508-6.396,0.297-9.647-0.774
	c-3.03-0.853-3.534-2.631-2.153-3.656c1.276-0.946,3.447-1.658,3.447-1.658l8.971-3.19V37.532z M33.414,23.625v23.198l-6.256-1.986
	v-27.66c2.66,0.494,6.535,1.661,8.619,2.363c5.298,1.819,7.095,4.083,7.095,9.184c-0.001,4.973-3.07,6.857-6.97,4.975v-9.264
	c0-1.088-0.201-2.089-1.221-2.373C33.899,21.812,33.414,22.537,33.414,23.625z M48.275,41.489L34.6,46.401v-3.622l10.064-3.586
	c1.142-0.409,1.317-0.988,0.389-1.291c-0.927-0.305-2.604-0.217-3.747,0.194L34.6,40.457v-3.759l0.386-0.131
	c0,0,1.938-0.686,4.662-0.988c2.725-0.3,6.061,0.041,8.68,1.034c2.953,0.932,3.285,2.307,2.536,3.254
	C50.114,40.814,48.275,41.489,48.275,41.489z"/>
</svg>
