<svg xmlns="http://www.w3.org/2000/svg" xmlns:xlink="http://www.w3.org/1999/xlink" width="64px" height="64px" viewBox="0 0 64 64" preserveAspectRatio="xMidYMid meet">
<path fill="#currentColor" d="M32,12c-5.533,0-10.25,1.95-14.15,5.85S12,26.467,12,32s1.95,10.233,5.85,14.1v0.05
	C21.75,50.05,26.467,52,32,52s10.233-1.95,14.1-5.85l0.05-0.05C50.05,42.233,52,37.533,52,32s-1.95-10.25-5.85-14.15H46.1
	C42.233,13.95,37.533,12,32,12 M56,32c0,6.667-2.35,12.317-7.05,16.95C44.317,53.65,38.667,56,32,56c-6.633,0-12.3-2.35-17-7.05
	C10.333,44.317,8,38.667,8,32c0-6.633,2.333-12.3,7-17c4.7-4.667,10.367-7,17-7c6.667,0,12.317,2.333,16.95,7
	C53.65,19.7,56,25.367,56,32 M43.318,20.649c-3.093-3.116-6.866-4.674-11.318-4.674c-4.429,0-8.213,1.558-11.351,4.674
	c-3.116,3.138-4.674,6.922-4.674,11.351c0,4.452,1.558,8.224,4.674,11.318c3.138,3.138,6.922,4.707,11.351,4.707
	c4.452,0,8.224-1.569,11.318-4.707c3.138-3.093,4.707-6.866,4.707-11.318C48.025,27.571,46.456,23.787,43.318,20.649z
	 M27.956,35.694l-4.31,1.542c-0.761,0.273-0.879,0.66-0.26,0.863c0.619,0.203,1.74,0.145,2.503-0.129l2.067-0.75v2.172
	c-0.131,0.023-0.277,0.047-0.413,0.069c-2.069,0.339-4.271,0.198-6.441-0.517c-2.023-0.57-2.36-1.757-1.438-2.441
	c0.852-0.632,2.302-1.107,2.302-1.107l5.99-2.13V35.694z M32.944,26.408v15.489l-4.177-1.326V22.103
	c1.776,0.33,4.363,1.109,5.755,1.578c3.538,1.215,4.737,2.726,4.737,6.132c-0.001,3.321-2.05,4.578-4.654,3.322v-6.186
	c0-0.726-0.134-1.395-0.815-1.584C33.268,25.197,32.944,25.681,32.944,26.408z M42.867,38.336l-9.131,3.28v-2.418l6.72-2.394
	c0.763-0.273,0.879-0.66,0.26-0.862c-0.619-0.204-1.739-0.145-2.502,0.13l-4.478,1.576v-2.51l0.258-0.087
	c0,0,1.294-0.458,3.113-0.66c1.819-0.2,4.047,0.027,5.796,0.69c1.972,0.622,2.193,1.54,1.693,2.173
	C44.095,37.885,42.867,38.336,42.867,38.336z"/>
</svg>
